<svg id="logo" data-name="logo" xmlns="http://www.w3.org/2000/svg" viewBox="0 0 50 50">
  <defs>
    <style>
      .background {
        fill: var(--primary-500, #0080ff);
      }

      .text {
        fill: #fff;
      }

      @media (prefers-color-scheme: dark) {
        .background {
          fill: var(--primary-500, #e07000);
        }
      }
      
      html[theme="dark"] .background {
        fill: var(--primary-500, #e07000);
      }
    </style>
  </defs>
  <path class="background"
    d="M45.43,44.14C38.87,51.42,13.14,52,5.86,45.43S-2,13.14,4.57,5.86,36.86-2,44.14,4.57,52,36.86,45.43,44.14Z" />
  <g>
    <path class="text"
      d="M20.47,34a10.86,10.86,0,0,1-3.42-1.47l1.71-3.84a11.55,11.55,0,0,0,6.07,1.82c2,0,3-.5,3-1.5A1.23,1.23,0,0,0,27,27.85a16,16,0,0,0-2.74-.8,26.62,26.62,0,0,1-3.47-1,5.8,5.8,0,0,1-2.39-1.64,4.41,4.41,0,0,1-1-3.05,5.28,5.28,0,0,1,.92-3A6.13,6.13,0,0,1,21,16.23a11.23,11.23,0,0,1,4.48-.79,15.83,15.83,0,0,1,3.57.41A10.94,10.94,0,0,1,32.18,17l-1.6,3.86a10.76,10.76,0,0,0-5.09-1.42,4.32,4.32,0,0,0-2.26.46,1.38,1.38,0,0,0-.71,1.2,1.18,1.18,0,0,0,.84,1.1,14.59,14.59,0,0,0,2.7.76,25.94,25.94,0,0,1,3.48,1,6,6,0,0,1,2.39,1.63,4.34,4.34,0,0,1,1,3,5.19,5.19,0,0,1-.92,3,6.34,6.34,0,0,1-2.76,2.14,11.27,11.27,0,0,1-4.47.8A16.85,16.85,0,0,1,20.47,34Z" />
  </g>
</svg>