<?xml version="1.0" standalone="no"?>
<!DOCTYPE svg PUBLIC "-//W3C//DTD SVG 20010904//EN"
 "http://www.w3.org/TR/2001/REC-SVG-20010904/DTD/svg10.dtd">
<svg version="1.0" xmlns="http://www.w3.org/2000/svg"
 width="700.000000pt" height="700.000000pt" viewBox="0 0 700.000000 700.000000"
 preserveAspectRatio="xMidYMid meet">
<metadata>
Created by potrace 1.14, written by Peter Selinger 2001-2017
</metadata>
<g transform="translate(0.000000,700.000000) scale(0.100000,-0.100000)"
fill="#000000" stroke="none">
<path d="M3105 6989 c-555 -35 -1086 -129 -1518 -269 -520 -168 -870 -395
-1066 -690 -277 -416 -453 -1090 -511 -1948 -13 -195 -13 -738 0 -947 59 -963
269 -1756 591 -2241 235 -353 610 -571 1254 -729 312 -77 620 -122 1010 -150
242 -17 765 -20 1000 -5 970 61 1755 268 2241 591 358 239 578 622 738 1289
152 631 198 1500 120 2295 -64 665 -215 1258 -429 1686 -209 417 -458 638
-925 822 -391 153 -934 259 -1535 297 -184 12 -778 11 -970 -1z m715 -2169
c225 -28 437 -85 597 -160 l83 -39 -19 -48 c-54 -137 -194 -469 -201 -476 -4
-5 -41 8 -81 28 -103 52 -242 101 -356 125 -138 29 -366 37 -456 16 -78 -18
-153 -54 -184 -88 -29 -31 -53 -89 -53 -130 0 -46 36 -114 73 -137 54 -32 204
-79 413 -127 223 -52 455 -121 549 -163 201 -91 345 -248 401 -436 26 -85 23
-272 -4 -376 -74 -276 -286 -472 -622 -573 -174 -52 -248 -61 -495 -61 -304 1
-518 33 -750 115 -107 38 -304 137 -312 156 -4 11 207 506 222 522 2 2 68 -28
147 -67 79 -39 178 -82 220 -95 320 -103 699 -105 840 -5 36 26 67 90 68 138
0 49 -36 117 -74 140 -67 42 -236 96 -441 141 -148 33 -388 104 -490 145 -235
95 -393 268 -441 482 -20 91 -15 261 12 358 54 202 212 388 413 490 106 53
303 110 446 128 67 9 416 6 495 -3z"/>
</g>
</svg>
