<svg id="Layer_1" data-name="Layer 1" xmlns="http://www.w3.org/2000/svg" xmlns:xlink="http://www.w3.org/1999/xlink" viewBox="0 0 502.47 651.21">
  <defs>
    <style>
      .cls-1 {
        fill: url(#linear-gradient);
      }
    </style>
    <linearGradient id="linear-gradient" x1="216.61" y1="691.25" x2="707.17" y2="200.69" gradientUnits="userSpaceOnUse">
      <stop offset="0" stop-color="#d2d2d2"/>
      <stop offset="0.25" stop-color="#bdbdbd"/>
      <stop offset="0.78" stop-color="#878688"/>
      <stop offset="0.99" stop-color="#6f6d70"/>
    </linearGradient>
  </defs>
  <path class="cls-1" d="M499.19,369.52l32.35,40.79,18.64,22.5q54.14,66.81,54.15,141.36,0,72.42-47.82,126.93Q491.1,776,385.26,776q-81.93,0-134.32-50.46T198.55,596.32q0-96.35,81.58-160.7,43.25-34.1,79.82-34.1,19,0,30.94,10.9t12,28.13q0,23.2-27.43,40.08l-28.13,17.23Q323,513,306.85,540.06T290.68,593.5q0,41.85,28.3,69.1t71.91,27.25q48.17,0,83.69-36t35.51-84.92q0-30.93-14.41-56.26t-62.24-78.41q-33.42-36.93-47.82-64.7H290.68q-48.53,0-48.53-33.41,0-24.25,17.06-37.44t48-13.19h60.13q7-69.62,63.65-115.16T566.7,124.79q59.43,0,96.88,32.7T701,242.23q0,69.27-59.43,106.19-33.75,21.1-107.25,21.1Zm-42.19-84h84.39q71.37,0,71.38-41.49,0-16.17-14.6-26t-38.85-9.85q-38,0-69.1,23.56T457,285.48Z" transform="translate(-198.55 -124.79)"/>
</svg>
