<svg id="Layer_1" data-name="Layer 1" xmlns="http://www.w3.org/2000/svg" viewBox="0 0 50 50">
  <defs>
    <style>
      .background, .text {
        fill: var(--primary-500, #1f8fff);
      }
    </style>
  </defs>
    <path class="background" d="M25.74,0V2C33.38,2,40.07,3.59,42.8,6.05c2.91,2.62,4.94,9.72,5.18,18.09S46.59,39.87,44,42.8C41.14,45.91,33.23,48,24.26,48,16.63,48,9.93,46.41,7.2,44,4.29,41.33,2.26,34.23,2,25.86s1.39-15.73,4-18.66C8.86,4.09,16.77,2,25.74,2V0m0,0C17,0,8.07,2,4.57,5.86c-6.57,7.28-6,33,1.29,39.57C9.25,48.49,16.66,50,24.26,50c8.7,0,17.67-2,21.17-5.86,6.57-7.28,6-33-1.29-39.57C40.75,1.51,33.34,0,25.74,0Z" transform="translate(0)"/>
  <g>
    <path class="text"
      d="M20.47,34a10.86,10.86,0,0,1-3.42-1.47l1.71-3.84a11.55,11.55,0,0,0,6.07,1.82c2,0,3-.5,3-1.5A1.23,1.23,0,0,0,27,27.85a16,16,0,0,0-2.74-.8,26.62,26.62,0,0,1-3.47-1,5.8,5.8,0,0,1-2.39-1.64,4.41,4.41,0,0,1-1-3.05,5.28,5.28,0,0,1,.92-3A6.13,6.13,0,0,1,21,16.23a11.23,11.23,0,0,1,4.48-.79,15.83,15.83,0,0,1,3.57.41A10.94,10.94,0,0,1,32.18,17l-1.6,3.86a10.76,10.76,0,0,0-5.09-1.42,4.32,4.32,0,0,0-2.26.46,1.38,1.38,0,0,0-.71,1.2,1.18,1.18,0,0,0,.84,1.1,14.59,14.59,0,0,0,2.7.76,25.94,25.94,0,0,1,3.48,1,6,6,0,0,1,2.39,1.63,4.34,4.34,0,0,1,1,3,5.19,5.19,0,0,1-.92,3,6.34,6.34,0,0,1-2.76,2.14,11.27,11.27,0,0,1-4.47.8A16.85,16.85,0,0,1,20.47,34Z"
      transform="translate(0 0)" />
  </g>
</svg>